STARTFONT 2.1
FONT -JDECW-Mincho-Medium-R-Normal--34-240-100-100-M-340-JISX0208.1983-1.3
SIZE 24 100 100
FONTBOUNDINGBOX 34 34 0 -6

STARTPROPERTIES 26
FONTNAME_REGISTRY ""
FAMILY_NAME "Mincho"
FOUNDRY "JDECW"
WEIGHT_NAME "Medium"
SLANT "R"
SETWIDTH_NAME "Normal"
ADD_STYLE_NAME ""
PIXEL_SIZE 34
POINT_SIZE 240
RESOLUTION_X 100
RESOLUTION_Y 100
SPACING "M"
AVERAGE_WIDTH 340
CHARSET_REGISTRY "JISX0208.1983"
CHARSET_ENCODING "1"
DEVICE_FONT_NAME "Mincho-JISX0208.1983-1"
CHARSET_COLLECTIONS "JISX0208.1983 1"
FULL_NAME "Mincho-JISX0208.1983-1"
COPYRIGHT "Copyright (c) 1990 1991 TYPEBANK, Digital Equipment Corporation Japan"
CAP_HEIGHT 23
X_HEIGHT 16
WEIGHT 10
QUAD_WIDTH 34
DEFAULT_CHAR 41634
FONT_DESCENT 6
FONT_ASCENT 28
ENDPROPERTIES

CHARS 59

STARTCHAR Ca1a2
ENCODING 41378
SWIDTH 1000 0
DWIDTH 34 0
BBX 34 34 0 -6
BITMAP
0000000000
0000000000
0000000000
0000003000
0000001C00
0000000E00
0000000F00
0000000700
0000000700
0000000000
0000000000
0000000000
0000000000
0000000000
0000000000
0000000000
0000000000
0000000000
0000000000
0000000000
0000000000
0000000000
0000000000
0000000000
0000000000
0000000000
0000000000
0000000000
0000000000
0000000000
0000000000
0000000000
0000000000
0000000000
ENDCHAR

STARTCHAR Ca1a3
ENCODING 41379
SWIDTH 1000 0
DWIDTH 34 0
BBX 34 34 0 -6
BITMAP
0000000000
0000000000
0000000000
0000001F00
0000002100
0000002180
0000002180
0000002100
0000001F00
0000000400
0000000000
0000000000
0000000000
0000000000
0000000000
0000000000
0000000000
0000000000
0000000000
0000000000
0000000000
0000000000
0000000000
0000000000
0000000000
0000000000
0000000000
0000000000
0000000000
0000000000
0000000000
0000000000
0000000000
0000000000
ENDCHAR

STARTCHAR Ca1a4
ENCODING 41380
SWIDTH 1000 0
DWIDTH 34 0
BBX 34 34 0 -6
BITMAP
0000000000
0000000000
0000000000
0000000000
0000000000
0000000780
0000000780
00000007C0
00000007C0
0000000180
0000000180
0000000300
0000000200
0000000400
0000000000
0000000000
0000000000
0000000000
0000000000
0000000000
0000000000
0000000000
0000000000
0000000000
0000000000
0000000000
0000000000
0000000000
0000000000
0000000000
0000000000
0000000000
0000000000
0000000000
ENDCHAR

STARTCHAR Ca1a5
ENCODING 41381
SWIDTH 1000 0
DWIDTH 34 0
BBX 34 34 0 -6
BITMAP
0000000000
0000000000
0000000000
0000000000
0000001800
0000003C00
0000007E00
0000007C00
0000003C00
0000000000
0000000000
0000000000
0000000000
0000000000
0000000000
0000000000
0000000000
0000000000
0000000000
0000000000
0000000000
0000000000
0000000000
0000000000
0000000000
0000000000
0000000000
0000000000
0000000000
0000000000
0000000000
0000000000
0000000000
0000000000
ENDCHAR

STARTCHAR Ca1b1
ENCODING 41393
SWIDTH 1000 0
DWIDTH 34 0
BBX 34 34 0 -6
BITMAP
0000000000
0000000080
0000000080
0000000080
0000000080
0000000080
0000000080
0000000080
0000000080
0000000080
0000000080
0000000080
0000000080
0000000080
0000000080
0000000080
0000000080
0000000080
0000000080
0000000080
0000000080
0000000080
0000000080
0000000080
0000000080
0000000080
0000000080
0000000080
0000000080
0000000080
0000000080
0000000080
0000000000
0000000080
ENDCHAR

STARTCHAR Ca1b2
ENCODING 41394
SWIDTH 1000 0
DWIDTH 34 0
BBX 34 34 0 -6
BITMAP
0000000000
8000000000
8000000000
8000000000
8000000000
8000000000
8000000000
8000000000
8000000000
8000000000
8000000000
8000000000
8000000000
8000000000
8000000000
8000000000
8000000000
8000000000
8000000000
8000000000
8000000000
8000000000
8000000000
8000000000
8000000000
8000000000
8000000000
8000000000
8000000000
8000000000
8000000000
8000000000
0000000000
8000000000
ENDCHAR

STARTCHAR Ca1bc
ENCODING 41404
SWIDTH 1000 0
DWIDTH 34 0
BBX 34 34 0 -6
BITMAP
0000000000
0000000000
0000000000
0000000000
0001800000
0001C00000
0000E00000
0000E00000
0000E00000
0000E00000
0000C00000
0000C00000
0000C00000
0000C00000
0000C00000
0000C00000
0000C00000
0000C00000
0000C00000
0000C00000
0000C00000
0000C00000
0000C00000
0000C00000
0000C00000
0001C00000
0001C00000
0001C00000
0001C00000
0001C00000
0001C00000
0000800000
0000000000
0000000000
ENDCHAR

STARTCHAR Ca1bd
ENCODING 41405
SWIDTH 1000 0
DWIDTH 34 0
BBX 34 34 0 -6
BITMAP
0000000000
0000000000
0000000000
0000800000
0000800000
0000800000
0000800000
0000800000
0000800000
0000800000
0000800000
0000800000
0000800000
0000800000
0000800000
0000800000
0000800000
0000800000
0000800000
0000800000
0000800000
0000800000
0000800000
0000800000
0000800000
0000800000
0000800000
0000800000
0000800000
0000800000
0000800000
0000800000
0000000000
0000000000
ENDCHAR

STARTCHAR Ca1be
ENCODING 41406
SWIDTH 1000 0
DWIDTH 34 0
BBX 34 34 0 -6
BITMAP
0000000000
0000000000
0000000000
0000000000
0000000000
0000000000
0000000000
0000000000
0000000000
0000000000
0000000000
0000000000
0000800000
0000800000
0000800000
0000800000
0000800000
0000800000
0000800000
0000800000
0000800000
0000800000
0000800000
0000000000
0000000000
0000000000
0000000000
0000000000
0000000000
0000000000
0000000000
0000000000
0000000000
0000000000
ENDCHAR

STARTCHAR Ca1c1
ENCODING 41409
SWIDTH 1000 0
DWIDTH 34 0
BBX 34 34 0 -6
BITMAP
0000000000
0000000000
0000000000
0000000000
0000300000
0000600000
0000C00000
0001800000
0003000000
0003000000
0003000000
0003000000
0003000000
0003000000
0003800000
0001800000
0001C00000
0000E00000
0000600000
0000700000
0000380000
0000180000
0000180000
0000180000
0000180000
0000180000
0000180000
0000300000
0000600000
0000C00000
0001800000
0000000000
0000000000
0000000000
ENDCHAR

STARTCHAR Ca1c2
ENCODING 41410
SWIDTH 1000 0
DWIDTH 34 0
BBX 34 34 0 -6
BITMAP
0000000000
0000000000
0000000000
0000000000
0000000000
0000000000
0000000000
0000000000
0000000000
0000000000
0000000000
0000000000
0000000000
0000000000
FFFFFFFF80
FFFFFFFF80
0000000000
0000000000
0000000000
FFFFFFFF80
FFFFFFFF80
0000000000
0000000000
0000000000
0000000000
0000000000
0000000000
0000000000
0000000000
0000000000
0000000000
0000000000
0000000000
0000000000
ENDCHAR

STARTCHAR Ca1c3
ENCODING 41411
SWIDTH 1000 0
DWIDTH 34 0
BBX 34 34 0 -6
BITMAP
0000000000
0000000000
0000000000
0000000000
0000000000
0000000000
0000000000
0000000000
0000000000
0000000000
0000000000
0000000000
0000000000
0000000000
0000000000
0000000000
0000000000
FFFFFFFF80
0000000000
0000000000
0000000000
0000000000
0000000000
0000000000
0000000000
0000000000
0000000000
0000000000
0000000000
0000000000
0000000000
0000000000
0000000000
0000000000
ENDCHAR

STARTCHAR Ca1c4
ENCODING 41412
SWIDTH 1000 0
DWIDTH 34 0
BBX 34 34 0 -6
BITMAP
0000000000
0000000000
0000000000
0000000000
0001C00000
0001C00000
0003E00000
0001C00000
0000800000
0000000000
0000000000
0000000000
0000000000
0000000000
0000000000
0000800000
0001C00000
0003E00000
0001C00000
0000800000
0000000000
0000000000
0000000000
0000000000
0000000000
0000000000
0000800000
0001C00000
0003E00000
0001C00000
0001C00000
0000000000
0000000000
0000000000
ENDCHAR

STARTCHAR Ca1c5
ENCODING 41413
SWIDTH 1000 0
DWIDTH 34 0
BBX 34 34 0 -6
BITMAP
0000000000
0000000000
0000000000
0000000000
0000000000
0000000000
0000000000
0001C00000
0003E00000
0003E00000
0001C00000
0000800000
0000000000
0000000000
0000000000
0000000000
0000000000
0000000000
0000000000
0000000000
0000000000
0000000000
0000000000
0000800000
0001C00000
0003E00000
0003E00000
0001C00000
0000000000
0000000000
0000000000
0000000000
0000000000
0000000000
ENDCHAR

STARTCHAR Ca1c6
ENCODING 41414
SWIDTH 1000 0
DWIDTH 34 0
BBX 34 34 0 -6
BITMAP
0000000000
0000000000
0000000000
0000000000
0000000000
0000000000
0000000000
0000000000
0000000000
0000000000
0000000000
0000000000
0000000000
0000000000
0000000000
0000000000
0000000000
0000000000
0000000000
0000000000
0000000000
0000000000
0000000000
0000000000
0000000000
0000000000
0000000000
000001C000
000001F000
000003FC00
000001C600
0000008200
0000000000
0000000000
ENDCHAR

STARTCHAR Ca1c7
ENCODING 41415
SWIDTH 1000 0
DWIDTH 34 0
BBX 34 34 0 -6
BITMAP
0000000000
0000000000
0000000000
0000030C00
0000019E00
000000FE00
0000007E00
0000001C00
0000000000
0000000000
0000000000
0000000000
0000000000
0000000000
0000000000
0000000000
0000000000
0000000000
0000000000
0000000000
0000000000
0000000000
0000000000
0000000000
0000000000
0000000000
0000000000
0000000000
0000000000
0000000000
0000000000
0000000000
0000000000
0000000000
ENDCHAR

STARTCHAR Ca1c8
ENCODING 41416
SWIDTH 1000 0
DWIDTH 34 0
BBX 34 34 0 -6
BITMAP
0000000000
0000000000
0000000000
0000000000
0000000000
0000000000
0000000000
0000000000
0000000000
0000000000
0000000000
0000000000
0000000000
0000000000
0000000000
0000000000
0000000000
0000000000
0000000000
0000000000
0000000000
000001E000
000003F800
000003FC00
000001C600
0000008300
0000000000
0000000000
000001E000
000003F800
000003FC00
000001E600
0000000000
0000002000
ENDCHAR

STARTCHAR Ca1c9
ENCODING 41417
SWIDTH 1000 0
DWIDTH 34 0
BBX 34 34 0 -6
BITMAP
0000000000
0000000000
0000010000
0000031E00
000000DE00
0000007E00
0000003E00
0000000000
0000000000
0000030C00
0000019E00
000000FE00
0000007E00
0000001C00
0000000000
0000000000
0000000000
0000000000
0000000000
0000000000
0000000000
0000000000
0000000000
0000000000
0000000000
0000000000
0000000000
0000000000
0000000000
0000000000
0000000000
0000000000
0000000000
0000000000
ENDCHAR

STARTCHAR Ca1ca
ENCODING 41418
SWIDTH 1000 0
DWIDTH 34 0
BBX 34 34 0 -6
BITMAP
0000000000
0000000000
0000000000
0000000000
0000000000
0000000000
0000000000
0000000000
0000000000
0000000000
0000000000
0000000000
0000000000
0000000000
0000000000
0000000000
0000000000
0000000000
0000000000
0000000000
0000000000
0000000000
0000000000
003FFE0000
00FFFF8000
03E003E000
0700007000
0C00001800
1800000C00
3000000600
2000000200
2000000100
0000000000
0000000000
ENDCHAR

STARTCHAR Ca1cb
ENCODING 41419
SWIDTH 1000 0
DWIDTH 34 0
BBX 34 34 0 -6
BITMAP
0000000000
0000000000
0000000000
2000000100
2000000200
3000000600
1800000C00
0C00001800
0700007000
03E003E000
00FFFF8000
003FFE0000
0000000000
0000000000
0000000000
0000000000
0000000000
0000000000
0000000000
0000000000
0000000000
0000000000
0000000000
0000000000
0000000000
0000000000
0000000000
0000000000
0000000000
0000000000
0000000000
0000000000
0000000000
0000000000
ENDCHAR

STARTCHAR Ca1cc
ENCODING 41420
SWIDTH 1000 0
DWIDTH 34 0
BBX 34 34 0 -6
BITMAP
0000000000
0000000000
0000000000
0000000000
0000000000
0000000000
0000000000
0000000000
0000000000
0000000000
0000000000
0000000000
0000000000
0000000000
0000000000
0000000000
0000000000
0000000000
0000000000
0000000000
0000000000
0000000000
0000000000
0000000000
0000000000
07FFFFF000
0FFFFFF800
1800000C00
1800000C00
3000000600
3000000600
6000000300
0000000000
0000000000
ENDCHAR

STARTCHAR Ca1cd
ENCODING 41421
SWIDTH 1000 0
DWIDTH 34 0
BBX 34 34 0 -6
BITMAP
0000000000
0000000000
0000000000
6000000300
3000000600
3000000600
1800000C00
1800000C00
0FFFFFF800
07FFFFF000
0000000000
0000000000
0000000000
0000000000
0000000000
0000000000
0000000000
0000000000
0000000000
0000000000
0000000000
0000000000
0000000000
0000000000
0000000000
0000000000
0000000000
0000000000
0000000000
0000000000
0000000000
0000000000
0000000000
0000000000
ENDCHAR

STARTCHAR Ca1ce
ENCODING 41422
SWIDTH 1000 0
DWIDTH 34 0
BBX 34 34 0 -6
BITMAP
0000000000
0000000000
0000000000
0000000000
0000000000
0000000000
0000000000
0000000000
0000000000
0000000000
0000000000
0000000000
0000000000
0000000000
0000000000
0000000000
0000000000
0000000000
0000000000
0000000000
0000000000
3FFFFFFE00
3FFFFFFE00
2000000200
2000000200
2000000200
2000000200
2000000200
2000000200
2000000200
2000000200
2000000200
0000000000
0000000000
ENDCHAR

STARTCHAR Ca1cf
ENCODING 41423
SWIDTH 1000 0
DWIDTH 34 0
BBX 34 34 0 -6
BITMAP
0000000000
0000000000
0000000000
2000000200
2000000200
2000000200
2000000200
2000000200
2000000200
2000000200
2000000200
2000000200
3FFFFFFE00
0000000000
0000000000
0000000000
0000000000
0000000000
0000000000
0000000000
0000000000
0000000000
0000000000
0000000000
0000000000
0000000000
0000000000
0000000000
0000000000
0000000000
0000000000
0000000000
0000000000
0000000000
ENDCHAR

STARTCHAR Ca1d0
ENCODING 41424
SWIDTH 1000 0
DWIDTH 34 0
BBX 34 34 0 -6
BITMAP
0000000000
0000000000
0000000000
0000000000
0000000000
0000000000
0000000000
0000000000
0000000000
0000000000
0000000000
0000000000
0000000000
0000000000
0000000000
0000000000
0000000000
0000000000
0000000000
0000000000
0000000000
0000000000
0000000000
0000800000
0000C00000
0001C00000
03FF7FE000
0FFE3FF800
1800000C00
3000000600
2000000200
2000000300
0000000000
0000000000
ENDCHAR

STARTCHAR Ca1d1
ENCODING 41425
SWIDTH 1000 0
DWIDTH 34 0
BBX 34 34 0 -6
BITMAP
0000000000
0000000000
0000000000
2000000300
2000000200
3000000600
1800000C00
0FFE3FF800
03FF7FE000
0001C00000
0000C00000
0000800000
0000000000
0000000000
0000000000
0000000000
0000000000
0000000000
0000000000
0000000000
0000000000
0000000000
0000000000
0000000000
0000000000
0000000000
0000000000
0000000000
0000000000
0000000000
0000000000
0000000000
0000000000
0000000000
ENDCHAR

STARTCHAR Ca1d2
ENCODING 41426
SWIDTH 1000 0
DWIDTH 34 0
BBX 34 34 0 -6
BITMAP
0000000000
0000000000
0000000000
0000000000
0000000000
0000000000
0000000000
0000000000
0000000000
0000000000
0000000000
0000000000
0000000000
0000000000
0000000000
0000800000
0001C00000
0003600000
0006300000
000C180000
00180C0000
0030060000
0060030000
00C0018000
018000C000
0300006000
0600003000
0C00001800
1800000C00
3000000600
2000000200
2000000100
0000000000
0000000000
ENDCHAR

STARTCHAR Ca1d3
ENCODING 41427
SWIDTH 1000 0
DWIDTH 34 0
BBX 34 34 0 -6
BITMAP
0000000000
0000000000
0000000000
2000000100
2000000200
3000000600
1800000C00
0C00001800
0600003000
0300006000
018000C000
00C0018000
0060030000
0030060000
00180C0000
000C180000
0006300000
0003600000
0001C00000
0000800000
0000000000
0000000000
0000000000
0000000000
0000000000
0000000000
0000000000
0000000000
0000000000
0000000000
0000000000
0000000000
0000000000
0000000000
ENDCHAR

STARTCHAR Ca1d4
ENCODING 41428
SWIDTH 1000 0
DWIDTH 34 0
BBX 34 34 0 -6
BITMAP
0000000000
0000000000
0000000000
0000000000
0000000000
0000000000
0000000000
0000000000
0000000000
0000800000
0001C00000
0003600000
0006300000
000C180000
00180C0000
0030860000
0061C30000
00C3618000
018630C000
030C186000
06180C3000
0C30061800
1860030C00
30C0018600
218000C200
2300006100
0600003000
0C00001800
1800000C00
3000000600
2000000200
2000000100
0000000000
0000000000
ENDCHAR

STARTCHAR Ca1d5
ENCODING 41429
SWIDTH 1000 0
DWIDTH 34 0
BBX 34 34 0 -6
BITMAP
0000000000
0000000000
0000000000
2000000100
2000000200
3000000600
1800000C00
0C00001800
0600003000
2300006100
218000C200
30C0018600
1860030C00
0C30061800
06180C3000
030C186000
018630C000
00C3618000
0061C30000
0030860000
00180C0000
000C180000
0006300000
0003600000
0001C00000
0000800000
0000000000
0000000000
0000000000
0000000000
0000000000
0000000000
0000000000
0000000000
ENDCHAR

STARTCHAR Ca1d6
ENCODING 41430
SWIDTH 1000 0
DWIDTH 34 0
BBX 34 34 0 -6
BITMAP
0000000000
0000000000
0000000000
0000000000
0000000000
0000000000
0000000000
0000000000
0000000000
0000000000
0000000000
0000000000
0000000000
0000000000
0000000000
0000000000
0000000000
0000000000
0000000000
0000000000
0000000000
0000000000
0000000000
01FFFFFE00
01FFFFFE00
0000000200
0000000200
0000000200
0000000200
0000000200
0000000200
0000000200
0000000000
0000000000
ENDCHAR

STARTCHAR Ca1d7
ENCODING 41431
SWIDTH 1000 0
DWIDTH 34 0
BBX 34 34 0 -6
BITMAP
0000000000
0000000000
0000000000
2000000000
2000000000
2000000000
2000000000
2000000000
2000000000
2000000000
3FFFFFC000
3FFFFFC000
0000000000
0000000000
0000000000
0000000000
0000000000
0000000000
0000000000
0000000000
0000000000
0000000000
0000000000
0000000000
0000000000
0000000000
0000000000
0000000000
0000000000
0000000000
0000000000
0000000000
0000000000
0000000000
ENDCHAR

STARTCHAR Ca1d8
ENCODING 41432
SWIDTH 1000 0
DWIDTH 34 0
BBX 34 34 0 -6
BITMAP
0000000000
0000000000
0000000000
0000000000
0000000000
0000000000
0000000000
0000000000
0000000000
0000000000
0000000000
0000000000
0000000000
0000000000
0000000000
0000000000
0000000000
0000000000
0000000000
01FFFFFE00
01FFFFFE00
0100000200
0100000200
0100000200
01FFFFE200
0000002200
0000002200
0000002200
0000002200
0000002200
0000003E00
0000000000
0000000000
0000000000
ENDCHAR

STARTCHAR Ca1d9
ENCODING 41433
SWIDTH 1000 0
DWIDTH 34 0
BBX 34 34 0 -6
BITMAP
0000000000
0000000000
0000000000
0000000000
3E00000000
2200000000
2200000000
2200000000
2200000000
2200000000
23FFFFC000
2000004000
2000004000
2000004000
3FFFFFC000
3FFFFFC000
0000000000
0000000000
0000000000
0000000000
0000000000
0000000000
0000000000
0000000000
0000000000
0000000000
0000000000
0000000000
0000000000
0000000000
0000000000
0000000000
0000000000
0000000000
ENDCHAR

STARTCHAR Ca1da
ENCODING 41434
SWIDTH 1000 0
DWIDTH 34 0
BBX 34 34 0 -6
BITMAP
0000000000
0000000000
0000000000
0000000000
0000000000
0000000000
0000000000
0000000000
0000000000
0000000000
0000000000
0000000000
0000000000
0000000000
0000000000
0000000000
0000000000
0000000000
0000000000
0000000000
0000000000
0000000000
0000000000
0000000000
0000000000
3FFFFFFE00
3FF007FE00
3F0000FE00
3C00001E00
3800000E00
2000000200
2000000100
0000000000
0000000000
ENDCHAR

STARTCHAR Ca1db
ENCODING 41435
SWIDTH 1000 0
DWIDTH 34 0
BBX 34 34 0 -6
BITMAP
0000000000
0000000000
0000000000
2000000100
2000000200
3800000E00
3C00001E00
3F8000FE00
3FF007FE00
3FFFFFFE00
0000000000
0000000000
0000000000
0000000000
0000000000
0000000000
0000000000
0000000000
0000000000
0000000000
0000000000
0000000000
0000000000
0000000000
0000000000
0000000000
0000000000
0000000000
0000000000
0000000000
0000000000
0000000000
0000000000
0000000000
ENDCHAR

STARTCHAR Ca2a2
ENCODING 41634
SWIDTH 1000 0
DWIDTH 34 0
BBX 34 34 0 -6
BITMAP
0000000000
0000000000
0000000000
0000000000
0000000000
07FFFFFC00
07FFFFFC00
0600000C00
0600000C00
0600000C00
0600000C00
0600000C00
0600000C00
0600000C00
0600000C00
0600000C00
0600000C00
0600000C00
0600000C00
0600000C00
0600000C00
0600000C00
0600000C00
0600000C00
0600000C00
0600000C00
0600000C00
0600000C00
07FFFFFC00
07FFFFFC00
0000000000
0000000000
0000000000
0000000000
ENDCHAR

STARTCHAR Ca4a1
ENCODING 42145
SWIDTH 1000 0
DWIDTH 34 0
BBX 34 34 0 -6
BITMAP
0000000000
0000000000
0000000000
0000000000
0000000000
0000600000
0000700000
0000300000
000030C000
000833C000
000C7F8000
0007F80000
0000620000
0000630000
00007FE000
0000F3B800
0001E31C00
0007630E00
000E660700
001C6E0700
00186C0700
0030780700
0030700700
0070600E00
0071F00C00
003F701C00
003C607000
000009E000
0000070000
0000000000
0000000000
0000000000
0000000000
0000000000
ENDCHAR

STARTCHAR Ca4a3
ENCODING 42147
SWIDTH 1000 0
DWIDTH 34 0
BBX 34 34 0 -6
BITMAP
0000000000
0000000000
0000000000
0000000000
0000000000
0000000000
0000000000
0000000000
0380000000
01C0030000
01C001C000
01C000E000
01C0007000
01C0003000
0180003800
0180003C00
0181001C00
0082001C00
00C6001C00
00C4000800
00CC000000
007C000000
007C000000
003C000000
001C000000
0008000000
0000000000
0000000000
0000000000
0000000000
0000000000
0000000000
0000000000
0000000000
ENDCHAR

STARTCHAR Ca4a5
ENCODING 42149
SWIDTH 1000 0
DWIDTH 34 0
BBX 34 34 0 -6
BITMAP
0000000000
0000000000
0000000000
0000000000
0000000000
0000080000
00000C0000
000007F000
000001F800
0000031000
0000040000
0000000000
000000F800
00000FDC00
0000FE0E00
0000F80600
0000600700
0000000700
0000000700
0000000700
0000000700
0000000700
0000000E00
0000000E00
0000001C00
0000003800
000000F000
000003C000
00001E0000
0000000000
0000000000
0000000000
0000000000
0000000000
ENDCHAR

STARTCHAR Ca4a7
ENCODING 42151
SWIDTH 1000 0
DWIDTH 34 0
BBX 34 34 0 -6
BITMAP
0000000000
0000000000
0000000000
0000000000
0000000000
0000800000
0000C00000
00007F8000
00001F8000
00007B8000
0000400000
0000008000
000007C000
0006FFE000
0007E3C000
0003870000
00000E0000
00001C0000
0000380000
0000780000
0000FF0000
0001C30000
0003830000
0007018000
000E018000
001C018000
003801FE00
003800FF00
0010001C00
0000000000
0000000000
0000000000
0000000000
0000000000
ENDCHAR

STARTCHAR Ca4a9
ENCODING 42153
SWIDTH 1000 0
DWIDTH 34 0
BBX 34 34 0 -6
BITMAP
0000000000
0000000000
0000000000
0000000000
0000000000
0000000000
0006000000
0007000000
000380E000
0003003800
0003001C00
0003380E00
0043F80E00
007FC00600
0003000000
0003000000
0003030000
00033FE000
0003E07000
0007003800
001F001C00
0033001C00
0063001C00
0043001800
0063003800
0033107000
001F1FE000
000E000000
0000000000
0000000000
0000000000
0000000000
0000000000
0000000000
ENDCHAR

STARTCHAR Ca4c3
ENCODING 42179
SWIDTH 1000 0
DWIDTH 34 0
BBX 34 34 0 -6
BITMAP
0000000000
0000000000
0000000000
0000000000
0000000000
0000000000
0000000000
0000000000
0000000000
0000FF8000
0007E3C000
003F00E000
03F8007000
01F0003000
00C0003800
0000003800
0000003800
0000003000
0000007000
000000E000
000001E000
000003C000
00000F0000
00047C0000
0007C00000
0000000000
0000000000
0000000000
0000000000
0000000000
0000000000
0000000000
0000000000
0000000000
ENDCHAR

STARTCHAR Ca4e3
ENCODING 42211
SWIDTH 1000 0
DWIDTH 34 0
BBX 34 34 0 -6
BITMAP
0000000000
0000000000
0000000000
0000000000
0000700000
00001C0000
00000E0000
001E060000
001E020000
000700F000
000307FC00
00033C0700
0001F00300
0003C00380
008FC00380
007EC00380
0078600700
0000620F00
000061FC00
0000307000
0000300000
0000380000
0000180000
0000180000
00001C0000
00001C0000
00000C0000
00000C0000
0000040000
0000000000
0000000000
0000000000
0000000000
0000000000
ENDCHAR

STARTCHAR Ca4e5
ENCODING 42213
SWIDTH 1000 0
DWIDTH 34 0
BBX 34 34 0 -6
BITMAP
0000000000
0000000000
0000000000
0000000000
0000000000
00000E0000
0000070000
0020030000
0038030000
003803E000
00380FF800
00381B1C00
0030630E00
0030C30700
0031830700
0031030700
0033030700
0036030700
0036030700
003C030600
003C630E00
003C231C00
003C1F3800
00180FF000
001807C000
00080C0000
00001C0000
0000180000
0000600000
0000000000
0000000000
0000000000
0000000000
0000000000
ENDCHAR

STARTCHAR Ca4e7
ENCODING 42215
SWIDTH 1000 0
DWIDTH 34 0
BBX 34 34 0 -6
BITMAP
0000000000
0000000000
0000000000
0000000000
0000000000
00000E0000
0000070000
0000070000
0000070000
0000070000
0000070000
0000070E00
000007FE00
000007F800
0000030000
0000030000
0000030000
0000030000
0000030000
0000030000
0000030000
00007B0000
0003FFC000
000603F800
0004037E00
0006030F00
0007070700
0003FE0000
0000780000
0000000000
0000000000
0000000000
0000000000
0000000000
ENDCHAR

STARTCHAR Ca4ee
ENCODING 42222
SWIDTH 1000 0
DWIDTH 34 0
BBX 34 34 0 -6
BITMAP
0000000000
0000000000
0000000000
0000000000
0000000000
0006000000
0003800000
0003800000
0003800000
0003800000
0003000000
004783F000
007FCE7800
007B981C00
0023600E00
0003C00E00
0007800600
000F000700
000F000700
001B000600
0033000600
0073000E00
00EB000C00
01CB001C00
00C7007800
008707E000
0007000000
0003000000
0002000000
0000000000
0000000000
0000000000
0000000000
0000000000
ENDCHAR

STARTCHAR Ca5a1
ENCODING 42401
SWIDTH 1000 0
DWIDTH 34 0
BBX 34 34 0 -6
BITMAP
0000000000
0000000000
0000000000
0000000000
0000000000
0000000000
0010000E00
001FFFFF00
000FFC0F00
0007001C00
0000003800
0000007000
000010E000
00001F8000
00000E0000
00000E0000
00000E0000
00000E0000
00000E0000
00000C0000
00000C0000
00001C0000
0000180000
0000380000
0000300000
0000600000
0001C00000
0003000000
0000000000
0000000000
0000000000
0000000000
0000000000
0000000000
ENDCHAR

STARTCHAR Ca5a3
ENCODING 42403
SWIDTH 1000 0
DWIDTH 34 0
BBX 34 34 0 -6
BITMAP
0000000000
0000000000
0000000000
0000000000
0000000000
0000000600
0000000700
0000000780
0000000F00
0000001E00
0000003800
0000007000
000000E000
000003C000
000007C000
00001CC000
000070C000
0001C0C000
000600C000
000000C000
000000C000
000000C000
000000C000
000000C000
000000C000
000000E000
000000E000
000000C000
0000004000
0000000000
0000000000
0000000000
0000000000
0000000000
ENDCHAR

STARTCHAR Ca5a5
ENCODING 42405
SWIDTH 1000 0
DWIDTH 34 0
BBX 34 34 0 -6
BITMAP
0000000000
0000000000
0000000000
0000000000
0000000000
00000E0000
0000070000
0000070000
0000070000
0000070200
0007073F00
0003FFFF00
0003800700
0003800600
0003800600
0003800E00
0003800E00
0003800C00
0003801C00
0001801800
0000003800
0000003000
0000007000
000000E000
000001C000
0000038000
0000060000
00001C0000
0000300000
0000000000
0000000000
0000000000
0000000000
0000000000
ENDCHAR

STARTCHAR Ca5a7
ENCODING 42407
SWIDTH 1000 0
DWIDTH 34 0
BBX 34 34 0 -6
BITMAP
0000000000
0000000000
0000000000
0000000000
0000000000
0000000000
0000000000
0000000000
0000000000
03000F0000
01FFFF8000
01FF800000
0003800000
0003800000
0003800000
0003800000
0003800000
0003800000
0003800000
0003800000
0003800000
100380E000
0C03BFF000
0FFFFFF000
07E0000000
0000000000
0000000000
0000000000
0000000000
0000000000
0000000000
0000000000
0000000000
0000000000
ENDCHAR

STARTCHAR Ca5a9
ENCODING 42409
SWIDTH 1000 0
DWIDTH 34 0
BBX 34 34 0 -6
BITMAP
0000000000
0000000000
0000000000
0000000000
0000000000
00000E0000
0000070000
0000030000
0000030000
0000030000
0000030000
0040037F00
003FFFFF00
003FDF0000
00001B0000
00003B0000
0000330000
0000730000
0000E30000
0000C30000
0001830000
0003030000
0006038000
000C038000
0018338000
00700F8000
01C0078000
0080038000
0000010000
0000000000
0000000000
0000000000
0000000000
0000000000
ENDCHAR

STARTCHAR Ca5c3
ENCODING 42435
SWIDTH 1000 0
DWIDTH 34 0
BBX 34 34 0 -6
BITMAP
0000000000
0000000000
0000000000
0000000000
0000000000
0000000000
0000600800
0000200F00
0030300700
0018180700
001C180E00
000C1C0E00
000E1C0C00
000E1C1C00
0006001C00
0006003800
0000003000
0000007000
0000006000
000000C000
000001C000
0000038000
0000070000
00000C0000
0000380000
0000600000
0003800000
0002000000
0000000000
0000000000
0000000000
0000000000
0000000000
0000000000
ENDCHAR

STARTCHAR Ca5e3
ENCODING 42467
SWIDTH 1000 0
DWIDTH 34 0
BBX 34 34 0 -6
BITMAP
0000000000
0000000000
0000000000
0000000000
0000000000
0001E00000
0000700000
0000700000
0000300000
0000300600
0000303F00
000033FF00
0030FF0E00
001FF81C00
000F181800
0000183000
00001C6000
00000CC000
00000C0000
00000C0000
00000C0000
00000E0000
0000060000
0000060000
0000070000
0000070000
0000070000
0000070000
0000000000
0000000000
0000000000
0000000000
0000000000
0000000000
ENDCHAR

STARTCHAR Ca5e5
ENCODING 42469
SWIDTH 1000 0
DWIDTH 34 0
BBX 34 34 0 -6
BITMAP
0000000000
0000000000
0000000000
0000000000
0000000000
0000000000
0000000000
0000000000
0000000000
0200180000
01FFFC0000
01FF9C0000
00001C0000
0000180000
0000180000
0000180000
0000180000
0000180000
0000180000
0000380000
0000380000
100031C000
1FFFFFE000
0FFFFFE000
0000000000
0000000000
0000000000
0000000000
0000000000
0000000000
0000000000
0000000000
0000000000
0000000000
ENDCHAR

STARTCHAR Ca5e7
ENCODING 42471
SWIDTH 1000 0
DWIDTH 34 0
BBX 34 34 0 -6
BITMAP
0000000000
0000000000
0000000000
0000000000
0000000000
0000000000
0000000000
0000000000
0008003000
000FFFF800
0007FE3800
0000003800
0000003000
0000003000
0000003000
0002003000
0003FFF000
0001F03000
0000003000
0000003000
0000007000
0000007000
0010007000
000C007800
000FFFF800
0007C00000
0000000000
0000000000
0000000000
0000000000
0000000000
0000000000
0000000000
0000000000
ENDCHAR

STARTCHAR Ca5ee
ENCODING 42478
SWIDTH 1000 0
DWIDTH 34 0
BBX 34 34 0 -6
BITMAP
0000000000
0000000000
0000000000
0000000000
0000000000
0000000000
0000000400
000E00FE00
0007FFFF00
0007000E00
0007000E00
0007000C00
0007001C00
0007001C00
0007001800
0007003800
0007003800
0007003000
0000007000
000000E000
000000C000
0000018000
0000038000
0000070000
00000C0000
0000180000
0000600000
0000800000
0000000000
0000000000
0000000000
0000000000
0000000000
0000000000
ENDCHAR

STARTCHAR Ca5f5
ENCODING 42485
SWIDTH 1000 0
DWIDTH 34 0
BBX 34 34 0 -6
BITMAP
0000000000
0000000000
0000000000
0000000000
0000000000
0000180000
00000E0000
0000070000
0000070000
0000060000
0000060000
00080E0E00
000FFFFF00
0007FE0700
00030C0600
00001C0600
0000180600
0000180600
0000380E00
0000300C00
0000700C00
0000600C00
0000C21C00
0001C31800
000181F800
000300F000
000600F000
002C00E000
0030000000
0000000000
0000000000
0000000000
0000000000
0000000000
ENDCHAR

STARTCHAR Ca5f6
ENCODING 42486
SWIDTH 1000 0
DWIDTH 34 0
BBX 34 34 0 -6
BITMAP
0000000000
0000000000
0000000000
0000000000
0000000000
0003800000
0001C00000
0001C00000
0001C00000
0001800000
000380FF00
0003FFFF00
0007030000
0006030000
000C030000
0018070000
0030070000
0060070000
0020060000
0000060000
00000E0000
00000C0000
0000180000
0000380000
0000700000
0000C00000
0003800000
0002000000
0000000000
0000000000
0000000000
0000000000
0000000000
0000000000
ENDCHAR
ENDFONT
